<svg id="visual" viewBox="0 0 1200 800" width="1200" height="800" xmlns="http://www.w3.org/2000/svg" xmlns:xlink="http://www.w3.org/1999/xlink" version="1.1"><g stroke-width="1" stroke-linejoin="bevel"><path d="M658.7 421L762 530.3L765 367Z" fill="#277297" stroke="#277297"></path><path d="M658.7 421L641.7 543.3L762 530.3Z" fill="#112e42" stroke="#112e42"></path><path d="M913.3 287.7L781 280.7L765 367Z" fill="#15384f" stroke="#15384f"></path><path d="M765 367L668.7 237.7L658.7 421Z" fill="#297ea6" stroke="#297ea6"></path><path d="M811 678.7L901.3 522.3L762 530.3Z" fill="#297ea6" stroke="#297ea6"></path><path d="M762 530.3L901.3 522.3L765 367Z" fill="#246688" stroke="#246688"></path><path d="M658.7 421L554.3 562.3L641.7 543.3Z" fill="#246688" stroke="#246688"></path><path d="M672.7 700.7L811 678.7L762 530.3Z" fill="#1d4e6b" stroke="#1d4e6b"></path><path d="M901.3 522.3L953.3 398L765 367Z" fill="#277297" stroke="#277297"></path><path d="M781 280.7L668.7 237.7L765 367Z" fill="#1d4e6b" stroke="#1d4e6b"></path><path d="M658.7 421L522.3 361L554.3 562.3Z" fill="#081a28" stroke="#081a28"></path><path d="M668.7 237.7L522.3 361L658.7 421Z" fill="#297ea6" stroke="#297ea6"></path><path d="M953.3 398L913.3 287.7L765 367Z" fill="#19435d" stroke="#19435d"></path><path d="M781 280.7L770 149.3L668.7 237.7Z" fill="#112e42" stroke="#112e42"></path><path d="M672.7 700.7L762 530.3L641.7 543.3Z" fill="#1d4e6b" stroke="#1d4e6b"></path><path d="M554.3 562.3L672.7 700.7L641.7 543.3Z" fill="#19435d" stroke="#19435d"></path><path d="M668.7 237.7L533.3 249.7L522.3 361Z" fill="#081a28" stroke="#081a28"></path><path d="M901.3 522.3L1027.7 429L953.3 398Z" fill="#277297" stroke="#277297"></path><path d="M953.3 398L1083.7 305.7L913.3 287.7Z" fill="#246688" stroke="#246688"></path><path d="M1078.7 540.3L1027.7 429L901.3 522.3Z" fill="#1d4e6b" stroke="#1d4e6b"></path><path d="M913.3 287.7L770 149.3L781 280.7Z" fill="#15384f" stroke="#15384f"></path><path d="M668.7 237.7L645.7 112.3L533.3 249.7Z" fill="#00101c" stroke="#00101c"></path><path d="M522.3 361L435 523.3L554.3 562.3Z" fill="#205a7a" stroke="#205a7a"></path><path d="M554.3 562.3L509.3 678.7L672.7 700.7Z" fill="#277297" stroke="#277297"></path><path d="M394 403L435 523.3L522.3 361Z" fill="#277297" stroke="#277297"></path><path d="M435 523.3L509.3 678.7L554.3 562.3Z" fill="#112e42" stroke="#112e42"></path><path d="M914.3 800L951.3 703.7L811 678.7Z" fill="#297ea6" stroke="#297ea6"></path><path d="M811 678.7L951.3 703.7L901.3 522.3Z" fill="#1d4e6b" stroke="#1d4e6b"></path><path d="M428 228.7L394 403L522.3 361Z" fill="#246688" stroke="#246688"></path><path d="M770 149.3L645.7 112.3L668.7 237.7Z" fill="#112e42" stroke="#112e42"></path><path d="M533.3 249.7L428 228.7L522.3 361Z" fill="#081a28" stroke="#081a28"></path><path d="M951.3 703.7L1078.7 540.3L901.3 522.3Z" fill="#1d4e6b" stroke="#1d4e6b"></path><path d="M666.7 800L810 800L672.7 700.7Z" fill="#205a7a" stroke="#205a7a"></path><path d="M672.7 700.7L810 800L811 678.7Z" fill="#00101c" stroke="#00101c"></path><path d="M548.3 800L666.7 800L672.7 700.7Z" fill="#277297" stroke="#277297"></path><path d="M1027.7 429L1083.7 305.7L953.3 398Z" fill="#112e42" stroke="#112e42"></path><path d="M913.3 287.7L960.3 103.3L770 149.3Z" fill="#297ea6" stroke="#297ea6"></path><path d="M1200 388L1083.7 305.7L1027.7 429Z" fill="#1d4e6b" stroke="#1d4e6b"></path><path d="M505.3 99.3L428 228.7L533.3 249.7Z" fill="#112e42" stroke="#112e42"></path><path d="M303.7 549.3L427 682.7L435 523.3Z" fill="#1d4e6b" stroke="#1d4e6b"></path><path d="M435 523.3L427 682.7L509.3 678.7Z" fill="#19435d" stroke="#19435d"></path><path d="M509.3 678.7L548.3 800L672.7 700.7Z" fill="#00101c" stroke="#00101c"></path><path d="M810 800L914.3 800L811 678.7Z" fill="#112e42" stroke="#112e42"></path><path d="M951.3 703.7L1074.7 686.7L1078.7 540.3Z" fill="#1d4e6b" stroke="#1d4e6b"></path><path d="M423 800L548.3 800L509.3 678.7Z" fill="#112e42" stroke="#112e42"></path><path d="M1096.7 171.3L960.3 103.3L913.3 287.7Z" fill="#246688" stroke="#246688"></path><path d="M770 149.3L772 0L645.7 112.3Z" fill="#1d4e6b" stroke="#1d4e6b"></path><path d="M1101.7 800L1074.7 686.7L951.3 703.7Z" fill="#19435d" stroke="#19435d"></path><path d="M551.3 0L505.3 99.3L645.7 112.3Z" fill="#277297" stroke="#277297"></path><path d="M645.7 112.3L505.3 99.3L533.3 249.7Z" fill="#00101c" stroke="#00101c"></path><path d="M394 403L303.7 549.3L435 523.3Z" fill="#112e42" stroke="#112e42"></path><path d="M261.7 378L303.7 549.3L394 403Z" fill="#297ea6" stroke="#297ea6"></path><path d="M960.3 103.3L772 0L770 149.3Z" fill="#0c2435" stroke="#0c2435"></path><path d="M1083.7 305.7L1096.7 171.3L913.3 287.7Z" fill="#081a28" stroke="#081a28"></path><path d="M960.3 103.3L940.3 0L772 0Z" fill="#19435d" stroke="#19435d"></path><path d="M1200 250.7L1096.7 171.3L1083.7 305.7Z" fill="#112e42" stroke="#112e42"></path><path d="M1200 388L1027.7 429L1200 510.3Z" fill="#00101c" stroke="#00101c"></path><path d="M772 0L630.7 0L645.7 112.3Z" fill="#112e42" stroke="#112e42"></path><path d="M1200 510.3L1027.7 429L1078.7 540.3Z" fill="#246688" stroke="#246688"></path><path d="M1200 689.7L1200 510.3L1078.7 540.3Z" fill="#0c2435" stroke="#0c2435"></path><path d="M427 682.7L423 800L509.3 678.7Z" fill="#0c2435" stroke="#0c2435"></path><path d="M299.7 800L423 800L427 682.7Z" fill="#1d4e6b" stroke="#1d4e6b"></path><path d="M434 0L401 112.3L505.3 99.3Z" fill="#297ea6" stroke="#297ea6"></path><path d="M505.3 99.3L401 112.3L428 228.7Z" fill="#277297" stroke="#277297"></path><path d="M253.7 266.7L261.7 378L394 403Z" fill="#297ea6" stroke="#297ea6"></path><path d="M253.7 266.7L394 403L428 228.7Z" fill="#1d4e6b" stroke="#1d4e6b"></path><path d="M630.7 0L551.3 0L645.7 112.3Z" fill="#081a28" stroke="#081a28"></path><path d="M1027.7 0L940.3 0L960.3 103.3Z" fill="#081a28" stroke="#081a28"></path><path d="M171.3 668.7L288.7 662.7L303.7 549.3Z" fill="#19435d" stroke="#19435d"></path><path d="M303.7 549.3L288.7 662.7L427 682.7Z" fill="#297ea6" stroke="#297ea6"></path><path d="M1200 388L1200 250.7L1083.7 305.7Z" fill="#19435d" stroke="#19435d"></path><path d="M1096.7 171.3L1027.7 0L960.3 103.3Z" fill="#081a28" stroke="#081a28"></path><path d="M914.3 800L1101.7 800L951.3 703.7Z" fill="#19435d" stroke="#19435d"></path><path d="M1074.7 686.7L1200 689.7L1078.7 540.3Z" fill="#112e42" stroke="#112e42"></path><path d="M401 112.3L253.7 266.7L428 228.7Z" fill="#112e42" stroke="#112e42"></path><path d="M1101.7 800L1200 689.7L1074.7 686.7Z" fill="#00101c" stroke="#00101c"></path><path d="M1200 117.3L1027.7 0L1096.7 171.3Z" fill="#15384f" stroke="#15384f"></path><path d="M551.3 0L434 0L505.3 99.3Z" fill="#205a7a" stroke="#205a7a"></path><path d="M401 112.3L246.7 109.3L253.7 266.7Z" fill="#081a28" stroke="#081a28"></path><path d="M288.7 662.7L299.7 800L427 682.7Z" fill="#246688" stroke="#246688"></path><path d="M171.3 668.7L299.7 800L288.7 662.7Z" fill="#15384f" stroke="#15384f"></path><path d="M1200 250.7L1200 117.3L1096.7 171.3Z" fill="#246688" stroke="#246688"></path><path d="M1101.7 800L1200 800L1200 689.7Z" fill="#0c2435" stroke="#0c2435"></path><path d="M241.7 0L246.7 109.3L401 112.3Z" fill="#15384f" stroke="#15384f"></path><path d="M151.3 266.7L261.7 378L253.7 266.7Z" fill="#081a28" stroke="#081a28"></path><path d="M131.3 556.3L303.7 549.3L261.7 378Z" fill="#297ea6" stroke="#297ea6"></path><path d="M131.3 556.3L171.3 668.7L303.7 549.3Z" fill="#246688" stroke="#246688"></path><path d="M147.3 154.3L151.3 266.7L253.7 266.7Z" fill="#081a28" stroke="#081a28"></path><path d="M105.3 434L131.3 556.3L261.7 378Z" fill="#081a28" stroke="#081a28"></path><path d="M151.3 266.7L105.3 434L261.7 378Z" fill="#15384f" stroke="#15384f"></path><path d="M1200 117.3L1200 0L1027.7 0Z" fill="#112e42" stroke="#112e42"></path><path d="M246.7 109.3L147.3 154.3L253.7 266.7Z" fill="#1d4e6b" stroke="#1d4e6b"></path><path d="M0 281.7L0 426L105.3 434Z" fill="#081a28" stroke="#081a28"></path><path d="M153.3 0L147.3 154.3L246.7 109.3Z" fill="#205a7a" stroke="#205a7a"></path><path d="M434 0L241.7 0L401 112.3Z" fill="#15384f" stroke="#15384f"></path><path d="M0 698.7L171.3 668.7L131.3 556.3Z" fill="#15384f" stroke="#15384f"></path><path d="M0 698.7L110.3 800L171.3 668.7Z" fill="#0c2435" stroke="#0c2435"></path><path d="M171.3 668.7L110.3 800L299.7 800Z" fill="#00101c" stroke="#00101c"></path><path d="M0 281.7L105.3 434L151.3 266.7Z" fill="#19435d" stroke="#19435d"></path><path d="M241.7 0L153.3 0L246.7 109.3Z" fill="#297ea6" stroke="#297ea6"></path><path d="M0 281.7L151.3 266.7L0 169.3Z" fill="#0c2435" stroke="#0c2435"></path><path d="M105.3 434L0 548.3L131.3 556.3Z" fill="#246688" stroke="#246688"></path><path d="M0 426L0 548.3L105.3 434Z" fill="#112e42" stroke="#112e42"></path><path d="M0 169.3L151.3 266.7L147.3 154.3Z" fill="#081a28" stroke="#081a28"></path><path d="M0 548.3L0 698.7L131.3 556.3Z" fill="#112e42" stroke="#112e42"></path><path d="M0 0L0 169.3L147.3 154.3Z" fill="#19435d" stroke="#19435d"></path><path d="M0 698.7L0 800L110.3 800Z" fill="#205a7a" stroke="#205a7a"></path><path d="M153.3 0L0 0L147.3 154.3Z" fill="#112e42" stroke="#112e42"></path></g></svg>